<svg xmlns="http://www.w3.org/2000/svg" viewBox="0 0 512 512" style="height: 512px; width: 512px;"><defs><filter id="shadow-1" height="300%" width="300%" x="-100%" y="-100%"><feFlood flood-color="rgba(97, 2, 2, 1)" result="flood"></feFlood><feComposite in="flood" in2="SourceGraphic" operator="atop" result="composite"></feComposite><feGaussianBlur in="composite" stdDeviation="15" result="blur"></feGaussianBlur><feOffset dx="0" dy="0" result="offset"></feOffset><feComposite in="SourceGraphic" in2="offset" operator="over"></feComposite></filter><radialGradient id="lorc-ball-glow-gradient-1"><stop offset="0%" stop-color="#c91e1e" stop-opacity="1"></stop><stop offset="100%" stop-color="#460404" stop-opacity="1"></stop></radialGradient></defs><path d="M0 0h512v512H0z" fill="url(#pattern)" fill-opacity="1"></path><svg><defs><filter id="b" x="-.024" width="1.048" y="-.024" height="1.048" color-interpolation-filters="sRGB"><feGaussianBlur stdDeviation="4.823"></feGaussianBlur></filter><filter id="a" x="-.012" width="1.024" y="-.012" height="1.024" color-interpolation-filters="sRGB"><feGaussianBlur stdDeviation="2.55"></feGaussianBlur></filter><filter id="c" x="-.112" width="1.225" y="-.077" height="1.153" color-interpolation-filters="sRGB"><feGaussianBlur stdDeviation="15.63"></feGaussianBlur></filter><filter id="e" x="-.237" width="1.475" y="-.249" height="1.497" color-interpolation-filters="sRGB"><feGaussianBlur stdDeviation="18.7"></feGaussianBlur></filter><filter id="d" x="-.213" width="1.426" y="-.151" height="1.303" color-interpolation-filters="sRGB"><feGaussianBlur stdDeviation="18.7"></feGaussianBlur></filter></defs><path d="M196.6 1.207c-2.5 11.323-4.8 22.703-10.2 33.383-7-10.68-12.6-20.91-16.7-31.988L2.494 4.338C13 104.9 10.86 175.3 1.979 278.3L15.4 295.5l-9.494 6.3L2.6 462.7l1.019 45.9 112.681 3.1c3.6-16.1 6.5-32.5 13.2-47.3 4.5 14.4 5.7 29.4 7 44.4l160 .3c.8-6.1.7-8.1 2.3-14.4 5.1 4.5 7.8 9.5 10.6 14.5.8-10.1 3.9-19.8 7-29.5 4.8 9.2 6.7 19.4 8.8 29.5l185.2.4-4.6-78.2-21.4-8.2 21.3-4.9 5.8-395.47c-7-6.73-13.3-13.744-18-21.465l-15.1.114-2.1 20.321-1.4 47.23.8 84.87-8.6-97.14c9.3-16.86 2.2-39.69 5.7-55.239-92.1 1.696-184.1.685-276.2-.314z" overflow="visible" color="#000" fill="#ebc893" fill-rule="evenodd" stroke="#e0aa58" enable-background="accumulate"></path><path d="M196.6 1.203c-2.5 11.327-4.8 22.707-10.2 33.387-7-10.68-12.6-20.91-16.7-31.99L2.494 4.336C13 104.9 10.86 175.3 1.979 278.3L15.4 295.5l-9.494 6.3L2.6 462.7l1.019 45.9 112.681 3.1c.5-2.1-7.9-2.3-7.4-4.5L5.244 504.5l-.914-47.3 4.63-153.7 12.42-9-13.093-16.8C16.95 177.3 16.36 104 6.113 5.992l162.687.164c4 10.804 10.3 24.254 17.1 34.664 5.3-10.41 9.5-25.97 12-37.02 89.8.974 173.8 3.521 263.6 1.867 4.6 1.226 10.6.431 11.3-4.149-92.1 1.696-184.1.684-276.2-.315zm296.9.158l-15.1.116-.6 6.277 13.5-2.557c4.6 7.533 9.7 12.383 16.6 18.943l-4.6 389.06-19.9 9.9 4.1-.6 18.2-4.2 5.8-395.47c-7-6.73-13.3-13.748-18-21.469zm9.6 435.739l3.5 69.7-177.7.1c.4 2.1-4.1.2-3.7 2.3l185.2.4-4.6-78.2zm-370 25.1c-1 2.2-2.9.4-3.7 2.6 4.2 14 5.8 29.5 7.1 44l158 .3c1.9-5 .8-9.7 4.3-14.4 5.1 4.5 7.8 9.5 10.6 14.5.8-10.1 3.9-19.8 7-29.5 1.8 3.4 3.2 7 4.3 10.6-1.4-5.6-2.4-8.3-5.1-13.4-3 9.4-6.7 16.2-7.5 26-2.7-4.9-5.4-9.7-10.4-14.1-3.4 4.6-6.2 9.1-8 14l-147.6 3.4c-3.4-14.6-7.1-30.3-9-44z" overflow="visible" color="#000" opacity=".527" fill="#c87137" fill-rule="evenodd" filter="url(#a)" enable-background="accumulate"></path><path d="M200.1 16.1c-2.3 10.67-10.5 21.38-15.6 31.44-6.6-10.06-13.9-19.69-17.7-30.12L17.34 19.05C24.61 113.6 7.605 179.3 16.85 277l18.26 20.1L10.34 309l7.1 141.6.96 43.3 90.2 3.4c3.4-15.2 15-35.6 21.3-49.6 4.3 13.6 15.4 36.7 16.6 50.9l45.1.8 13.8-18.7 14.4 22.2 68.7-8.6c1.8-4.7 4.5-9.1 7.8-13.5 4.8 4.2 7.4 8.9 10 13.6.8-9.5 7.7-19.6 10.6-28.7 4.5 8.6 19.9 28.9 33.1 33.9l114.6 5.6 22.3-14.7 19.4 14.7-14.5-67.6-34.6-14.2 37.5-15.1 2.1-96.9-14.5-21.9 15.2-13.4 5.1-239.63c-5.2-21.09-11.8-24.89-16.9-20.22l-4.2 2.11 2 19.14.7 44.47-7.1 124.23-18.3-137.78c8.8-15.88-3.9-35.38-.6-50.02-67.1 1.24-140.4-13.332-202.8-3.28-14 2.25-23.7 21.31-36.9 24.48-4.3 1.03-13.9-23.45-18.4-23.5z" overflow="visible" enable-background="accumulate" filter="url(#b)" fill-rule="evenodd" fill="#f6e7d0" color="#000"></path><path d="M354 27.39l-70.3 96.91 46.4 97.6-56.2 43.6 33 74.4-30.2 63.2 69.8 48.8 31.6 29.5 31.6-13.3L365.9 335l55.5-36.5 2.1-146.1-56.9-101.83zM116.6 55.48L89.9 123.6s33.7 65.3 35.8 68.8c2.1 3.6-7 118-7 118l42.8 73.8s9.9-82.9 7.1-83.6c-2.8-.7-29.5-42.1-29.5-42.1l23.8-84.3-36.5-37.2z" color="#000" overflow="visible" fill="#f2dbb9" fill-rule="evenodd" filter="url(#c)" enable-background="accumulate"></path><path d="M39.33 172.1l-5.62 108.1L74.45 328 42.84 464.9l96.96-39.3 30.2 42.9 74.4-38.7-80.8-169.9-60.4-16.9z" color="#000" overflow="visible" fill="#eed3a4" fill-rule="evenodd" enable-background="accumulate" filter="url(#d)"></path><path d="M266.9 66.72L324.5 191 434 221.2l21.8-111.6-41.4-68.86z" color="#000" overflow="visible" fill="#eed3a4" fill-rule="evenodd" enable-background="accumulate" filter="url(#e)"></path></svg><g class="" transform="translate(0,0)" style=""><path d="M273.508 20.95c-20.294 83.173-71.2 93.138-116.574 21.183 22.312 81.62-20.014 117.135-95.952 75.732 62.942 60.523 46.187 111.364-41.34 113.98 82.154 20.54 93.91 74.45 22.852 120.378 82.168-22.885 115.243 21.042 70.113 101.03 62.48-70.69 116.493-53.202 116.88 42.278 19.073-92.266 71.62-103.97 118.925-23.135-27.222-87.467 16.35-125.63 96.375-80.063-66.397-61.842-50.328-112.95 41.34-113.977-87.137-20.138-96.734-77.174-18.15-124.28-88.478 29.408-125.027-11.343-79.518-93.23-59.8 63.712-112.373 48.707-114.952-39.896zm-6.91 73.575l28.68 33.502c2.66.902 5.298 1.883 7.91 2.952l43.5-8.115 8.484 45.492c.985 1.137 1.953 2.284 2.894 3.444l.01-.025 43.83 15.467-15.484 43.883-.416-.146c.328 1.608.634 3.22.904 4.838l.367-.314 30.14 35.21-35.09 30.036c-.52 1.647-1.08 3.286-1.665 4.916l8.424 45.168-43.078 8.035-4.205 4.204-.334-.334c-.705.615-1.42 1.216-2.132 1.815l-14.606 41.396-38.886-13.72c-4.54 1.19-9.128 2.155-13.746 2.88l-30.9 26.45-24.864-29.048c-6.178-1.572-12.267-3.576-18.22-6.014l-36.946 6.89-6.607-35.433c-.51-.494-1.022-.985-1.526-1.488-5.033-5.034-9.595-10.362-13.687-15.93l-33.38-11.78 11.66-33.046c-2.135-7.746-3.59-15.643-4.355-23.595L90.38 245.37l27.18-23.266c1.96-7.157 4.502-14.184 7.63-21.008l-6.698-35.912 37.555-7.002c4.542-4.28 9.307-8.187 14.254-11.733l12.845-36.4 38.732 13.667c4.34-.92 8.713-1.63 13.107-2.13l31.614-27.062zm-15.87 44.74c-30.553 0-61.104 11.68-84.468 35.046-18.532 18.532-29.706 41.587-33.54 65.577l76.75 10.802 11.577-45.626 43.164 4.795-10.44-70.553c-1.015-.026-2.03-.04-3.043-.04zm22.24 2.09l10.456 70.64 41.367 4.595-41.112 59.387 73.94 36.236c22.43-44.742 14.957-100.52-22.425-137.902-17.667-17.667-39.445-28.65-62.224-32.956zm-37.806 84.086l-11.697 46.095-92.25-12.982c-.06 30.628 11.62 61.273 35.043 84.695 23.006 23.006 52.98 34.677 83.062 35.03l-19.24-57.72 61.51-88.85-56.428-6.267zm37.754 66.08l-22.146 31.992 17.812 53.435c24.36-3.674 47.813-14.902 66.61-33.7 4.718-4.718 8.95-9.732 12.714-14.976l-74.99-36.75z" fill="url(#lorc-ball-glow-gradient-1)" filter="url(#shadow-1)"></path></g></svg>